<svg width="12" height="14" viewBox="0 0 12 14" fill="none" xmlns="http://www.w3.org/2000/svg">
<path d="M9.23887 9.09079C9.22774 9.08958 7.61619 9.13713 7.37657 7.41016C7.64282 7.22438 7.8882 6.98321 8.10438 6.69058C8.52493 6.12128 8.79591 5.40712 8.89243 4.63463C8.9256 4.60463 8.95305 4.56731 8.97153 4.52331C9.14618 4.10728 9.23475 3.66305 9.23475 3.20291C9.23475 1.43683 7.90253 0 6.26491 0C5.83663 0 5.42111 0.0986562 5.02867 0.29348C4.87897 0.30491 4.73227 0.331242 4.59158 0.371875C3.91901 0.566207 3.3717 1.06488 3.05044 1.77609C2.73855 2.46662 2.67708 3.27953 2.8774 4.06509C2.91973 4.23104 2.97355 4.39411 3.03737 4.54992C3.05465 4.59205 3.0804 4.62801 3.11133 4.6576C3.26768 5.86332 3.84138 6.86232 4.62363 7.40775C4.38328 9.13765 2.7723 9.08964 2.76119 9.09084C1.60231 9.13016 0.671448 10.0845 0.671448 11.2528V13.6848C0.671448 13.8589 0.812569 14 0.986667 14H3.7547H8.24528H11.0134C11.1874 14 11.3286 13.8589 11.3286 13.6848V11.2528C11.3286 10.0845 10.3978 9.13008 9.23887 9.09079ZM4.76661 0.977566C4.88165 0.944316 5.00314 0.924602 5.12771 0.918996C5.17395 0.916918 5.21915 0.904695 5.26014 0.883148C5.57927 0.715477 5.91735 0.630465 6.26494 0.630465C7.55485 0.630465 8.60431 1.78445 8.60431 3.20291C8.60431 3.24548 8.6031 3.28784 8.60125 3.33003C8.35105 3.07595 8.00343 2.91804 7.61955 2.91804H5.47112C5.34329 2.91804 5.22197 2.8779 5.12022 2.80194C5.03335 2.73711 4.96619 2.64996 4.92608 2.54994C4.86396 2.39523 4.71078 2.29846 4.54403 2.30893C4.37669 2.3196 4.23587 2.43581 4.1936 2.5982C4.0691 3.07661 3.82085 3.51728 3.48025 3.87464C3.16334 2.57037 3.73529 1.27553 4.76661 0.977566ZM4.49235 6.42961C4.08217 5.92851 3.81355 5.25183 3.7284 4.51101C4.12617 4.1565 4.44062 3.71533 4.64534 3.22599C4.6764 3.25464 4.70903 3.28174 4.7431 3.3072C4.95463 3.46505 5.20635 3.54853 5.47115 3.54853H7.61958C7.92356 3.54853 8.18556 3.73086 8.30249 3.9918C8.30246 3.99405 8.30213 3.99618 8.30213 3.99842C8.30213 5.7779 7.26963 7.22561 6.0005 7.22561C5.44815 7.22564 4.91252 6.94293 4.49235 6.42961ZM5.21666 7.71731C5.46656 7.80773 5.72941 7.85611 6.0005 7.85611C6.26942 7.85611 6.53217 7.80929 6.78371 7.71898C6.89912 8.32029 7.23345 8.84439 7.70046 9.20519L6.04521 11.5624C6.03441 11.5778 6.01939 11.5856 6.00058 11.5856C5.9818 11.5856 5.96678 11.5778 5.95601 11.5625L4.30035 9.20467C4.76738 8.84346 5.1016 8.31898 5.21666 7.71731ZM10.6981 13.3695H8.24528H3.7547H1.30189V11.2528C1.30189 10.4073 1.98977 9.71936 2.8353 9.71936C2.84678 9.71936 3.35403 9.70703 3.75484 9.52489L5.44001 11.9247C5.56808 12.1072 5.77765 12.2161 6.00055 12.2161C6.00055 12.2161 6.00055 12.2161 6.00058 12.2161C6.22346 12.2161 6.43305 12.1072 6.56113 11.9247L8.246 9.52528C8.7031 9.71939 9.15326 9.71939 9.16474 9.71939C10.0103 9.71939 10.6981 10.4073 10.6981 11.2528V13.3695Z" fill="#A8A8A8"/>
</svg>
