<svg width="10" height="16" viewBox="0 0 10 16" fill="none" xmlns="http://www.w3.org/2000/svg">
<path d="M4.57654 15.7856L2.11816 13.3274C2.00098 13.2102 1.93518 13.0512 1.93518 12.8854V8.7334C0.776367 7.80164 0.09375 6.38989 0.09375 4.89343C0.09375 2.17798 2.30298 -0.03125 5.01856 -0.03125C7.73401 -0.03125 9.94324 2.17798 9.94324 4.89343C9.94324 6.38989 9.26074 7.80164 8.10181 8.7334V10.427C8.10181 10.5928 8.03601 10.7518 7.91883 10.869L7.13147 11.6563L7.9187 12.4435C8.16272 12.6874 8.16284 13.0833 7.91883 13.3274L5.46045 15.7856C5.21643 16.0298 4.82068 16.0298 4.57654 15.7856ZM3.18518 12.6266L5.01856 14.4598L6.59302 12.8854L5.80579 12.0981C5.56177 11.8543 5.56165 11.4584 5.80579 11.2144L6.85193 10.1682V8.42127C6.85193 8.21704 6.95166 8.02564 7.11914 7.90869C8.10486 7.22058 8.69324 6.09339 8.69324 4.89343C8.69324 2.86719 7.0448 1.21875 5.01856 1.21875C2.99219 1.21875 1.34375 2.86719 1.34375 4.89343C1.34375 6.09339 1.93225 7.22058 2.91797 7.90869C3.08533 8.02564 3.18518 8.21704 3.18518 8.42127V12.6266ZM5.01856 3.5C4.58704 3.5 4.23731 3.84973 4.23731 4.28125C4.23731 4.71277 4.58704 5.0625 5.01856 5.0625C5.44995 5.0625 5.79981 4.71277 5.79981 4.28125C5.79981 3.84973 5.44995 3.5 5.01856 3.5Z" fill="#A8A8A8"/>
</svg>
